<svg width="54" height="72" viewBox="0 0 54 72" fill="none" xmlns="http://www.w3.org/2000/svg">
<path d="M17.5568 55.6763C17.5568 55.6763 14.8028 57.2805 19.5121 57.8183C25.2181 58.4753 28.1363 58.383 34.4183 57.186C34.4183 57.186 36.0676 58.23 38.3783 59.1323C24.2821 65.169 6.48008 58.77 17.5546 55.6763H17.5568ZM15.8311 47.8013C15.8311 47.8013 12.7373 50.085 17.4488 50.5643C23.5576 51.1965 28.3591 51.2573 36.6908 49.653C36.6908 49.653 37.8406 50.814 39.6586 51.4553C22.6193 56.4345 3.63383 51.8423 15.8333 47.8013H15.8311ZM30.3503 34.4318C33.8176 38.4278 29.4346 42.0255 29.4346 42.0255C29.4346 42.0255 38.2478 37.4648 34.2046 31.7723C30.4223 26.451 27.5153 23.8163 43.2158 14.7083C43.2158 14.7083 18.5716 20.862 30.3481 34.434L30.3503 34.4318ZM48.9848 61.5128C48.9848 61.5128 51.0256 63.1868 46.7461 64.4895C38.6123 66.9488 12.8903 67.6868 5.74208 64.5818C3.17708 63.468 7.99208 61.911 9.50408 61.5938C11.0858 61.2428 11.9881 61.3148 11.9881 61.3148C9.12833 59.2988 -6.47992 65.2635 4.05683 66.9735C32.8028 71.6378 56.4481 64.8765 48.9848 61.5128ZM18.8798 39.6338C18.8798 39.6338 5.79158 42.7388 14.2381 43.8638C17.8133 44.343 24.9278 44.2395 31.5608 43.677C36.9721 43.218 42.4126 42.246 42.4126 42.246C42.4126 42.246 40.5023 43.065 39.1186 44.0168C25.8278 47.5088 0.155329 45.8798 7.54883 42.3068C13.7948 39.294 18.8798 39.6338 18.8798 39.6338ZM42.3518 52.758C55.8518 45.7268 49.6058 38.988 45.2588 39.9038C44.1901 40.113 43.7108 40.3155 43.7108 40.3155C43.7108 40.3155 44.0978 39.6923 44.8606 39.4245C53.4848 36.3893 60.1178 48.3638 42.0818 53.1113C42.0818 53.1 42.2956 52.9245 42.3518 52.7603V52.758ZM34.2068 0C34.2068 0 41.6858 7.47675 27.1058 18.9833C15.4238 28.2173 24.4441 33.48 27.1058 39.492C20.2861 33.3383 15.2821 27.927 18.6346 22.887C23.5666 15.4688 37.2196 11.8823 34.2068 0ZM20.2028 71.7773C33.1651 72.5963 53.0731 71.3093 53.5568 65.1803C53.5568 65.1803 52.6411 67.5 42.8311 69.3495C31.7701 71.4353 18.1171 71.1878 10.0193 69.8535C10.0193 69.8535 11.6843 71.2238 20.2006 71.7773H20.2028Z" fill="black"/>
</svg>
